<?xml version="1.0" encoding="iso-8859-1"?>
<!-- Generator: Adobe Illustrator 19.0.0, SVG Export Plug-In . SVG Version: 6.00 Build 0)  -->
<svg version="1.1" id="Layer_1" xmlns="http://www.w3.org/2000/svg" xmlns:xlink="http://www.w3.org/1999/xlink" x="0px" y="0px"
	 viewBox="0 0 496.2 496.2" style="enable-background:new 0 0 496.2 496.2;" xml:space="preserve">
<path style="fill:#EA4949;" d="M496.2,248.1C496.2,111.1,385.1,0,248.1,0S0,111.1,0,248.1s111.1,248.1,248.1,248.1
	S496.2,385.1,496.2,248.1z"/>
<path style="fill:#172023;" d="M248.1,496.2c70.2,0,133.6-29.2,178.7-76c-2.8-15.1-5.6-28.9-8.3-37.4
	c-8.5-27.3-81.2-49.3-170.8-49.3s-161.5,22-170,49.3c-2.6,8.5-5.5,22.2-8.3,37.4C114.5,467,177.9,496.2,248.1,496.2z"/>
<path style="fill:#E2A379;" d="M287,282.1h-77.8c12.1,36.6,1,53.3,1,53.3s11.9,13.2,37.9,13.2s37.9-13.2,37.9-13.2
	S274.9,318.7,287,282.1z"/>
<g>
	<path style="fill:#F4B382;" d="M336.4,175.2c0-92.4-39.5-113.6-88.3-113.6c-48.7,0-88.3,21.2-88.3,113.6c0,31.3,6.2,55.8,15.5,74.7
		c20.4,41.6,55.7,56.1,72.8,56.1s52.4-14.5,72.8-56.1C330.2,231,336.4,206.5,336.4,175.2z"/>
	<path style="fill:#F4B382;" d="M170.4,238.7c-8.4,1.4-14.4,0.1-19.1-27.7s1.7-31.5,10.1-32.9L170.4,238.7z"/>
	<path style="fill:#F4B382;" d="M325.9,238.7c8.4,1.4,14.3,0.1,19.1-27.7c4.8-27.8-1.7-31.5-10.1-32.9L325.9,238.7z"/>
</g>
<path style="fill:#E5A173;" d="M274.8,257c0,2.6-11.9,9.5-26.7,9.5s-26.7-7-26.7-9.5c0-1.6,8.5-6.1,14.1-6.9
	c3.6-0.5,12.5,2.9,12.5,2.9s8.8-3.4,12.4-2.9C266.2,250.9,274.8,257,274.8,257z"/>
<path style="fill:#D89364;" d="M274.8,257c0,2.6-11.9,12.4-26.7,12.4s-26.7-9.9-26.7-12.4c0,0,10.9,1.3,26.7,1.3
	S274.8,257,274.8,257z"/>
<g>
	<path style="fill:#47200D;" d="M336.4,175.2c0-92.4-30.3-116.1-88.3-116.1s-88.3,23.7-88.3,116.1c0,0,16.3-34.1,28.3-53.1
		s38-18.3,38-18.3h49c0,0,27,0.3,34.5,18.3L336.4,175.2z"/>
	<path style="fill:#47200D;" d="M165.5,140.8c-4.2,10.9-5.6,24.4-5.6,37.5c0,0,8.8-1.9,8.8,2.6l2.8,27.6l3.9-1.9
		c-0.2-23,4.9-83.5,4.9-83.5L165.5,140.8z"/>
	<path style="fill:#47200D;" d="M330.8,140.8c4.2,10.9,5.6,24.4,5.6,37.5c0,0-8.8-1.9-8.8,2.6l-2.7,27.6l-3.9-1.9
		c0.2-23-4.9-81.7-4.9-81.7L330.8,140.8z"/>
</g>
<path style="fill:#EDAF24;" d="M338.4,180.8c0-101.9-35.3-125.2-90.3-125.2s-90.3,23.3-90.3,125.2l90.3-15.5L338.4,180.8z"/>
<path style="fill:#E5AA17;" d="M344.3,163.4c0,0-41.2-15.5-96.2-15.5s-96.2,15.5-96.2,15.5c-6.4,0-11.7,5.2-11.7,11.7
	s5.2,11.7,11.7,11.7c0,0,42.2-15.5,96.2-15.5s96.2,15.5,96.2,15.5c6.4,0,11.7-5.2,11.7-11.7S350.7,163.4,344.3,163.4z"/>
<path style="fill:#BF2626;" d="M276.9,106.1c0,15.9-12.9,28.8-28.8,28.8s-28.8-12.9-28.8-28.8s12.9-28.8,28.8-28.8
	S276.9,90.2,276.9,106.1z"/>
<path style="fill:#E17A2D;" d="M242.5,98c2.2-5.8,1.8-14.6,1.8-14.6s6,2.5,10.1,9.3c3.9,6.4,0.2,16,0.2,16c2.9-2.8,3.9-5.7,4-9.1
	c3.2,5.1,5.7,10.9,5.7,16.9c0,7.3-6.7,13.2-14.9,13.2c-8.2,0-14.9-5.9-14.9-13.2C234.5,109.4,239.9,104.9,242.5,98z"/>
<g style="opacity:0.8;">
	<path style="fill:#F4E028;" d="M245.4,110.5c1.2-3.5,1-8.9,1-8.9s11.8,9,10.9,20.1c-0.3,4.4-3.7,8-8.2,8s-8.2-3.6-8.2-8
		C241,117.4,244,114.6,245.4,110.5z"/>
</g>
<g style="opacity:0.8;">
	<path style="fill:#FFFFFF;" d="M246.8,117.4c0.8-2.2,0.6-5.6,0.6-5.6s7.5,5.7,6.9,12.7c-0.2,2.8-2.3,5.1-5.2,5.1
		c-2.9,0-5.2-2.3-5.2-5.1C244,121.7,245.9,120,246.8,117.4z"/>
</g>
<g>
	<path style="fill:#FFFFFF;" d="M311.5,337.4L311.5,337.4L311.5,337.4L311.5,337.4z"/>
	<path style="fill:#FFFFFF;" d="M298.5,335.9L298.5,335.9L298.5,335.9z"/>
</g>
<g>
	<path style="fill:#E5AA17;" d="M359.6,469.8c6.7-3.4,13.2-7,19.6-11H117.1c6.3,4,12.9,7.6,19.6,11H359.6z"/>
	<path style="fill:#E5AA17;" d="M248.1,496.2c25.2,0,49.5-3.8,72.4-10.7H175.7C198.6,492.4,222.9,496.2,248.1,496.2z"/>
</g>
<path style="fill:#A3A3A3;" d="M175.7,485.4h144.7c13.6-4.1,26.6-9.4,39.1-15.7H136.7C149.1,476,162.2,481.3,175.7,485.4z"/>
<g>
	<path style="fill:#E5AA17;" d="M258.1,458.8v11h101.5c6.7-3.4,13.2-7,19.6-11H258.1z"/>
	<path style="fill:#E5AA17;" d="M258.1,496c21.6-0.9,42.5-4.5,62.4-10.5h-62.4V496z"/>
</g>
<path style="fill:#A3A3A3;" d="M258.1,485.4h62.4c13.6-4.1,26.6-9.4,39.1-15.7H258.1V485.4z"/>
<g>
	<rect x="238.1" y="458.8" style="fill:#DDA019;" width="20" height="11"/>
	<path style="fill:#DDA019;" d="M238.1,485.4v10.5c3.3,0.1,6.7,0.2,10,0.2c3.3,0,6.7-0.1,10-0.2v-10.5H238.1z"/>
</g>
<rect x="238.1" y="469.8" style="fill:#969696;" width="20" height="15.7"/>
<path style="fill:#172023;" d="M315.4,365.1H180.8c0,0,2.4-55,14.3-55s25.6,5,53.1,5s41.2-5,53.1-5S315.4,365.1,315.4,365.1z"/>
<path style="fill:#0D1314;" d="M248.1,315.1c-3.6,0-6.9-0.1-10-0.2v143.9h20V314.9C255,315,251.7,315.1,248.1,315.1z"/>
<g>
</g>
<g>
</g>
<g>
</g>
<g>
</g>
<g>
</g>
<g>
</g>
<g>
</g>
<g>
</g>
<g>
</g>
<g>
</g>
<g>
</g>
<g>
</g>
<g>
</g>
<g>
</g>
<g>
</g>
</svg>
